<svg id="Capa_1" enable-background="new 0 0 512 512" height="512" viewBox="0 0 512 512" width="512" xmlns="http://www.w3.org/2000/svg"><g><path d="m135.62 230.442 50.844 26.73c10.24 5.385 22.448 4.532 31.855-2.302 9.383-6.818 13.994-18.154 12.033-29.584l-9.71-56.616c-.014-.081.013-.163.071-.22l41.134-40.096c17.946-17.494 8.029-47.991-16.763-51.594l-56.846-8.26c-.081-.012-.151-.062-.187-.136l-25.422-51.51c-11.092-22.476-43.162-22.466-54.249 0l-25.422 51.51c-.036.073-.106.124-.187.136l-56.845 8.26c-24.803 3.604-34.705 34.106-16.765 51.594l41.134 40.095c.059.058.086.14.072.221l-9.71 56.616c-4.236 24.694 21.707 43.547 43.888 31.886l50.844-26.73c.072-.038.158-.038.231 0z"/><path d="m490.751 156.723-33.801-4.912-15.116-30.628c-9.091-18.422-35.377-18.415-44.465 0l-15.116 30.628-33.8 4.912c-20.329 2.953-28.445 27.955-13.741 42.289l24.458 23.841-5.774 33.664c-3.472 20.247 17.798 35.693 35.973 26.136l30.232-15.894 30.232 15.894c18.183 9.56 39.444-5.896 35.973-26.136l-5.774-33.664 24.458-23.841c14.71-14.339 6.582-39.337-13.739-42.289z"/><path d="m353.457 345.436-49.665-7.216-22.211-45.004c-10.461-21.196-40.706-21.188-51.163 0l-22.21 45.004-49.666 7.217c-23.392 3.4-32.728 32.167-15.809 48.659l35.938 35.031-8.484 49.465c-3.996 23.298 20.477 41.067 41.391 30.072l44.422-23.354 44.422 23.354c9.659 5.079 21.175 4.272 30.043-2.171 8.849-6.429 13.198-17.12 11.349-27.901l-8.484-49.465 35.938-35.031c16.926-16.5 7.572-45.26-15.811-48.66z"/></g></svg>